HIERARCHY
ROOT Hip
{
	OFFSET -0.977214 -0.207589 0.080445
	CHANNELS 6 Xposition Yposition Zposition Xrotation Yrotation Zrotation
	JOINT LowerSpine
	{
		OFFSET 0.043089 0.148310 0.259456
		CHANNELS 6 Xposition Yposition Zposition Xrotation Yrotation Zrotation
		JOINT MiddleSpine
		{
			OFFSET -0.003106 -0.010691 0.236774
			CHANNELS 3 Xrotation Yrotation Zrotation
			JOINT Chest
			{
				OFFSET 0.016375 0.056363 0.292978
				CHANNELS 3 Xrotation Yrotation Zrotation
				JOINT Neck
				{
					OFFSET 0.003447 0.011866 0.660220
					CHANNELS 6 Xposition Yposition Zposition Xrotation Yrotation Zrotation
					JOINT Head
					{
						OFFSET -0.028296 -0.097383 0.372834
						CHANNELS 3 Xrotation Yrotation Zrotation
						End Site
						{
							OFFSET -0.000446 -0.001535 0.053543
						}
					}
				}
				JOINT LClavicle
				{
					OFFSET 0.002796 -0.205398 0.637146
					CHANNELS 6 Xposition Yposition Zposition Xrotation Yrotation Zrotation
					JOINT LShoulder
					{
						OFFSET 0.377805 0.044227 0.091389
						CHANNELS 3 Xrotation Yrotation Zrotation
						JOINT LForearm
						{
							OFFSET 0.796328 -0.223894 -0.002932
							CHANNELS 3 Xrotation Yrotation Zrotation
							JOINT LHand
							{
								OFFSET 0.663791 -0.188549 0.002002
								CHANNELS 3 Xrotation Yrotation Zrotation
								JOINT LFinger1
								{
									OFFSET 0.236095 -0.145946 0.023389
									CHANNELS 6 Xposition Yposition Zposition Xrotation Yrotation Zrotation
									JOINT LFinger11
									{
										OFFSET 0.091146 -0.044836 -0.024394
										CHANNELS 3 Xrotation Yrotation Zrotation
										JOINT LFinger12
										{
											OFFSET 0.062222 -0.030612 -0.016657
											CHANNELS 3 Xrotation Yrotation Zrotation
											End Site
											{
												OFFSET 0.046410 -0.022050 -0.015140
											}
										}
									}
								}
								JOINT LFinger2
								{
									OFFSET 0.258847 -0.081939 0.027009
									CHANNELS 6 Xposition Yposition Zposition Xrotation Yrotation Zrotation
									JOINT LFinger21
									{
										OFFSET 0.118980 -0.033806 0.000344
										CHANNELS 3 Xrotation Yrotation Zrotation
										JOINT LFinger22
										{
											OFFSET 0.065955 -0.018728 0.000210
											CHANNELS 3 Xrotation Yrotation Zrotation
											End Site
											{
												OFFSET 0.051292 -0.014975 -0.003773
											}
										}
									}
								}
								JOINT LFinger3
								{
									OFFSET 0.264000 -0.013326 0.018026
									CHANNELS 6 Xposition Yposition Zposition Xrotation Yrotation Zrotation
									JOINT LFinger31
									{
										OFFSET 0.109740 -0.024564 -0.005681
										CHANNELS 3 Xrotation Yrotation Zrotation
										JOINT LFinger32
										{
											OFFSET 0.062539 -0.013986 -0.003217
											CHANNELS 3 Xrotation Yrotation Zrotation
											End Site
											{
												OFFSET 0.051700 -0.012405 -0.006529
											}
										}
									}
								}
								JOINT LFinger4
								{
									OFFSET 0.258550 0.034330 -0.018138
									CHANNELS 6 Xposition Yposition Zposition Xrotation Yrotation Zrotation
									JOINT LFinger41
									{
										OFFSET 0.071610 -0.000960 -0.014398
										CHANNELS 3 Xrotation Yrotation Zrotation
										JOINT LFinger42
										{
											OFFSET 0.052515 -0.000696 -0.010542
											CHANNELS 3 Xrotation Yrotation Zrotation
											End Site
											{
												OFFSET 0.051659 -0.002958 -0.013857
											}
										}
									}
								}
								JOINT LFinger0
								{
									OFFSET 0.041427 -0.055711 -0.041874
									CHANNELS 6 Xposition Yposition Zposition Xrotation Yrotation Zrotation
									JOINT LFinger01
									{
										OFFSET 0.077248 -0.103312 -0.033827
										CHANNELS 3 Xrotation Yrotation Zrotation
										JOINT LFinger02
										{
											OFFSET 0.051500 -0.065849 -0.024270
											CHANNELS 3 Xrotation Yrotation Zrotation
											End Site
											{
												OFFSET 0.032705 -0.039819 -0.014636
											}
										}
									}
								}
							}
						}
					}
				}
				JOINT RClavicle
				{
					OFFSET -0.112419 -0.171921 0.637146
					CHANNELS 6 Xposition Yposition Zposition Xrotation Yrotation Zrotation
					JOINT RShoulder
					{
						OFFSET -0.295344 0.239824 0.091406
						CHANNELS 3 Xrotation Yrotation Zrotation
						JOINT RForearm
						{
							OFFSET -0.792329 0.237661 -0.002931
							CHANNELS 3 Xrotation Yrotation Zrotation
							JOINT RHand
							{
								OFFSET -0.661484 0.196486 0.002002
								CHANNELS 3 Xrotation Yrotation Zrotation
								JOINT RFinger1
								{
									OFFSET -0.277544 0.003283 0.023391
									CHANNELS 6 Xposition Yposition Zposition Xrotation Yrotation Zrotation
									JOINT RFinger11
									{
										OFFSET -0.100981 0.010983 -0.024394
										CHANNELS 3 Xrotation Yrotation Zrotation
										JOINT RFinger12
										{
											OFFSET -0.068939 0.007494 -0.016660
											CHANNELS 3 Xrotation Yrotation Zrotation
											End Site
											{
												OFFSET -0.051001 0.006250 -0.015141
											}
										}
									}
								}
								JOINT RFinger2
								{
									OFFSET -0.262456 0.069516 0.027011
									CHANNELS 6 Xposition Yposition Zposition Xrotation Yrotation Zrotation
									JOINT RFinger21
									{
										OFFSET -0.118575 0.035211 0.000344
										CHANNELS 3 Xrotation Yrotation Zrotation
										JOINT RFinger22
										{
											OFFSET -0.065722 0.019532 0.000210
											CHANNELS 3 Xrotation Yrotation Zrotation
											End Site
											{
												OFFSET -0.051331 0.014840 -0.003773
											}
										}
									}
								}
								JOINT RFinger3
								{
									OFFSET -0.230043 0.130210 0.018026
									CHANNELS 6 Xposition Yposition Zposition Xrotation Yrotation Zrotation
									JOINT RFinger31
									{
										OFFSET -0.105818 0.038062 -0.005681
										CHANNELS 3 Xrotation Yrotation Zrotation
										JOINT RFinger32
										{
											OFFSET -0.060297 0.021702 -0.003217
											CHANNELS 3 Xrotation Yrotation Zrotation
											End Site
											{
												OFFSET -0.050298 0.017228 -0.006529
											}
										}
									}
								}
								JOINT RFinger4
								{
									OFFSET -0.199905 0.167525 -0.018139
									CHANNELS 6 Xposition Yposition Zposition Xrotation Yrotation Zrotation
									JOINT RFinger41
									{
										OFFSET -0.060976 0.037561 -0.014395
										CHANNELS 3 Xrotation Yrotation Zrotation
										JOINT RFinger42
										{
											OFFSET -0.044713 0.027552 -0.010539
											CHANNELS 3 Xrotation Yrotation Zrotation
											End Site
											{
												OFFSET -0.045202 0.025183 -0.013857
											}
										}
									}
								}
								JOINT RFinger0
								{
									OFFSET -0.064829 -0.024838 -0.041871
									CHANNELS 6 Xposition Yposition Zposition Xrotation Yrotation Zrotation
									JOINT RFinger01
									{
										OFFSET -0.120580 -0.045840 -0.033833
										CHANNELS 3 Xrotation Yrotation Zrotation
										JOINT RFinger02
										{
											OFFSET -0.078765 -0.028003 -0.024268
											CHANNELS 3 Xrotation Yrotation Zrotation
											End Site
											{
												OFFSET -0.048950 -0.016096 -0.014636
											}
										}
									}
								}
							}
						}
					}
				}
			}
		}
	}
	JOINT RThigh
	{
		OFFSET -0.287569 0.109752 0.117281
		CHANNELS 6 Xposition Yposition Zposition Xrotation Yrotation Zrotation
		JOINT RShin
		{
			OFFSET -0.021328 0.006197 -1.207231
			CHANNELS 3 Xrotation Yrotation Zrotation
			JOINT RFoot
			{
				OFFSET 0.000000 0.000001 -1.185430
				CHANNELS 3 Xrotation Yrotation Zrotation
				JOINT RToe
				{
					OFFSET -0.076012 -0.261633 -0.130290
					CHANNELS 3 Xrotation Yrotation Zrotation
					End Site
					{
						OFFSET -0.014945 -0.051440 0.000000
					}
				}
			}
		}
	}
	JOINT LThigh
	{
		OFFSET 0.301605 -0.061419 0.117289
		CHANNELS 6 Xposition Yposition Zposition Xrotation Yrotation Zrotation
		JOINT LShin
		{
			OFFSET 0.021330 -0.006197 -1.207240
			CHANNELS 3 Xrotation Yrotation Zrotation
			JOINT LFoot
			{
				OFFSET 0.000000 0.000000 -1.185430
				CHANNELS 3 Xrotation Yrotation Zrotation
				JOINT LToe
				{
					OFFSET -0.076014 -0.261636 -0.130290
					CHANNELS 3 Xrotation Yrotation Zrotation
					End Site
					{
						OFFSET -0.014945 -0.051440 0.000000
					}
				}
			}
		}
	}
}
MOTION
Frames: 4
Frame Time: 0.041667
-1.500381 -0.251931 2.003092 7.307076 19.285751 -290.641843 0.043088 0.148310 0.259457 -0.000243 0.001465 -0.000630 0.554331 5.741613 -2.630629 3.274814 19.326949 -9.292640 0.003447 0.011866 0.660221 -3.486237 -15.436053 -4.780374 -7.219640 -11.234374 -1.092934 0.002796 -0.205398 0.637146 0.939759 3.231024 -0.026504 2.924244 13.701906 7.922300 -0.001303 0.000409 -1.334282 -0.000003 0.000008 -0.000002 0.236097 -0.145946 0.023388 0.000006 -0.000003 -0.000002 0.000007 -0.000002 0.000004 0.000003 0.000003 0.000010 0.258847 -0.081939 0.027009 0.000005 -0.000006 -0.000007 -0.000001 -0.000003 -0.000004 -0.000002 -0.000003 0.000003 0.264001 -0.013326 0.018026 0.000005 0.000002 -0.000001 0.000008 0.000005 -0.000011 -0.000007 -0.000009 0.000007 0.258550 0.034330 -0.018139 0.000014 -0.000012 -0.000002 -0.000016 -0.000003 0.000011 -0.000001 -0.000003 0.000002 0.041427 -0.055712 -0.041874 0.000009 -0.000007 -0.000005 -0.000010 -0.000004 0.000016 -0.000001 -0.000003 0.000020 -0.112419 -0.171922 0.637145 6.616471 21.632865 -1.265462 -7.842408 43.834488 21.710345 0.004049 0.001284 2.262655 0.000001 0.000006 -0.000032 -0.277543 0.003283 0.023392 0.000000 -0.000003 -0.000003 0.000003 0.000001 -0.000013 0.000007 0.000008 0.000001 -0.262455 0.069517 0.027012 0.000002 0.000005 0.000000 0.000004 0.000000 0.000007 -0.000003 -0.000004 -0.000005 -0.230043 0.130210 0.018027 -0.000001 -0.000002 0.000003 -0.000006 0.000007 0.000015 -0.000003 0.000001 -0.000005 -0.199906 0.167526 -0.018138 -0.000007 0.000005 0.000017 -0.000007 -0.000009 -0.000018 -0.000015 -0.000007 0.000016 -0.064830 -0.024836 -0.041870 0.000007 -0.000014 0.000028 -0.000025 -0.000005 0.000005 0.000040 0.000034 -0.000048 -0.274633 0.188704 0.227555 -50.105991 -6.857988 -7.637957 29.184292 -8.063398 2.102433 0.998938 0.140498 -0.885454 -0.000218 0.000058 -0.000002 0.284306 -0.060533 0.235523 -14.322775 13.418323 3.023598 48.050405 -12.192951 5.451545 -1.295616 0.284352 0.184938 -39.471936 10.464056 3.763208 
-1.495722 -0.249756 2.001412 7.859071 19.307338 -292.261991 0.043088 0.148310 0.259457 -0.000248 0.001500 -0.000647 0.532457 5.790603 -2.718199 3.249856 19.491716 -9.546033 0.003447 0.011866 0.660221 -3.283549 -15.788477 -4.837680 -6.611446 -11.272719 -1.031051 0.002796 -0.205398 0.637146 1.065295 3.661475 -0.034052 4.635934 15.716620 6.617269 -0.000852 0.000802 -1.058030 0.000001 0.000014 -0.000002 0.236096 -0.145946 0.023388 0.000007 -0.000002 -0.000004 0.000009 0.000000 -0.000001 0.000009 -0.000002 0.000014 0.258848 -0.081939 0.027009 0.000005 -0.000004 -0.000010 -0.000003 -0.000003 -0.000003 -0.000007 -0.000000 0.000007 0.264001 -0.013326 0.018026 0.000001 0.000004 -0.000001 0.000002 0.000004 -0.000012 0.000001 -0.000009 0.000005 0.258550 0.034330 -0.018139 0.000010 -0.000010 0.000001 -0.000013 0.000003 0.000009 0.000001 0.000003 0.000000 0.041427 -0.055712 -0.041874 0.000005 -0.000005 -0.000007 -0.000007 -0.000004 0.000019 -0.000002 -0.000004 0.000015 -0.112420 -0.171921 0.637145 6.630051 21.672996 -1.270500 -7.825490 43.903510 19.968873 0.003439 0.000643 1.948944 0.000003 0.000004 -0.000034 -0.277543 0.003283 0.023392 -0.000002 -0.000004 -0.000003 0.000004 0.000003 -0.000011 0.000004 0.000007 -0.000000 -0.262455 0.069516 0.027012 -0.000001 0.000003 -0.000002 0.000007 -0.000000 0.000009 -0.000005 -0.000001 -0.000001 -0.230043 0.130210 0.018027 -0.000006 0.000000 0.000006 -0.000005 0.000005 0.000010 0.000001 0.000002 0.000004 -0.199905 0.167525 -0.018138 -0.000014 0.000008 0.000018 -0.000008 -0.000010 -0.000014 -0.000011 -0.000009 0.000009 -0.064830 -0.024837 -0.041871 0.000007 -0.000017 0.000024 -0.000031 -0.000004 0.000013 0.000037 0.000030 -0.000049 -0.274662 0.188557 0.227107 -50.599582 -7.204048 -6.968565 30.114728 -8.293571 2.234794 0.709774 0.481821 -1.398751 -0.000248 0.000071 -0.000002 0.284195 -0.061345 0.234396 -14.675905 13.407569 4.980622 47.963740 -12.176854 5.433258 -1.166521 0.345340 -0.009523 -39.822411 10.539851 3.827089 
-1.489051 -0.247609 2.000043 8.394737 19.320324 -293.875528 0.043088 0.148310 0.259457 -0.000264 0.001537 -0.000666 0.503867 5.829876 -2.806069 3.208291 19.632902 -9.802011 0.003447 0.011866 0.660220 -3.141304 -16.093341 -4.893865 -6.308377 -11.320589 -1.002512 0.002796 -0.205398 0.637146 1.181523 4.059640 -0.041883 6.385642 17.594547 5.184033 -0.000173 0.000049 -0.920367 -0.000001 0.000014 -0.000003 0.236096 -0.145946 0.023388 0.000002 -0.000002 -0.000007 0.000006 -0.000000 -0.000001 0.000004 0.000006 0.000007 0.258847 -0.081939 0.027009 0.000000 -0.000003 -0.000010 -0.000000 -0.000005 -0.000008 -0.000005 -0.000003 0.000008 0.264002 -0.013326 0.018026 -0.000001 0.000003 -0.000003 0.000002 0.000006 -0.000010 -0.000003 -0.000000 0.000003 0.258550 0.034330 -0.018139 0.000008 -0.000015 -0.000004 -0.000012 -0.000007 0.000010 -0.000003 0.000001 -0.000002 0.041427 -0.055712 -0.041874 0.000005 -0.000009 -0.000006 -0.000002 -0.000001 0.000015 -0.000007 -0.000003 0.000014 -0.112420 -0.171922 0.637145 6.627879 21.666581 -1.269681 -7.787076 43.904985 18.370603 0.001922 -0.000573 1.235697 0.000004 0.000003 -0.000035 -0.277543 0.003283 0.023392 -0.000001 -0.000006 -0.000004 -0.000001 0.000004 -0.000010 -0.000001 0.000008 0.000002 -0.262455 0.069517 0.027012 -0.000001 0.000002 -0.000002 0.000003 -0.000001 0.000005 -0.000007 -0.000002 -0.000006 -0.230043 0.130210 0.018027 -0.000003 -0.000001 0.000002 -0.000005 0.000007 0.000008 -0.000004 -0.000000 -0.000005 -0.199905 0.167525 -0.018138 -0.000009 0.000006 0.000015 -0.000009 -0.000009 -0.000015 -0.000014 -0.000009 0.000011 -0.064830 -0.024837 -0.041870 0.000007 -0.000021 0.000027 -0.000029 -0.000006 0.000008 0.000039 0.000032 -0.000046 -0.274692 0.188405 0.226639 -51.067378 -7.567667 -6.210235 31.085666 -8.531174 2.376843 0.374671 0.804492 -1.839609 -0.000276 0.000075 0.000000 0.284084 -0.062149 0.233279 -14.910245 13.357456 6.947947 47.725083 -12.132385 5.383005 -1.004522 0.394511 -0.199302 -40.175951 10.615887 3.891994 
-1.481273 -0.245717 1.999408 8.910340 19.405524 -295.481661 0.043088 0.148310 0.259457 -0.000271 0.001574 -0.000686 0.468704 5.858786 -2.894338 3.153592 19.751922 -10.065758 0.003447 0.011866 0.660221 -3.076309 -16.332565 -4.948137 -5.997521 -11.379031 -0.973719 0.002797 -0.205398 0.637146 1.287678 4.422927 -0.049729 8.138444 19.253320 3.564156 -0.000002 -0.000001 -0.577737 0.000004 0.000011 -0.000002 0.236096 -0.145946 0.023388 0.000010 -0.000006 0.000001 0.000009 0.000000 0.000001 0.000009 0.000003 0.000008 0.258847 -0.081939 0.027009 0.000008 -0.000004 -0.000002 -0.000003 -0.000003 -0.000008 -0.000006 -0.000004 0.000008 0.264001 -0.013326 0.018026 0.000002 -0.000001 0.000002 0.000006 0.000003 -0.000010 -0.000004 -0.000008 0.000008 0.258549 0.034330 -0.018139 0.000013 -0.000021 0.000003 -0.000016 -0.000005 0.000013 0.000003 -0.000004 0.000001 0.041427 -0.055712 -0.041874 0.000009 -0.000010 -0.000001 -0.000009 0.000002 0.000009 -0.000002 -0.000005 0.000019 -0.112419 -0.171921 0.637145 6.603964 21.595914 -1.260860 -7.551728 43.738373 16.565321 -0.000002 0.000002 0.095655 0.000001 0.000002 -0.000039 -0.277543 0.003283 0.023392 -0.000002 -0.000003 -0.000000 0.000004 0.000001 -0.000011 0.000006 0.000005 -0.000003 -0.262455 0.069516 0.027012 -0.000004 0.000005 0.000002 0.000009 0.000001 0.000007 -0.000003 -0.000001 -0.000001 -0.230044 0.130210 0.018027 -0.000008 0.000003 0.000007 -0.000005 0.000008 0.000011 0.000000 -0.000003 -0.000006 -0.199905 0.167525 -0.018138 -0.000015 0.000009 0.000021 -0.000005 -0.000011 -0.000016 -0.000010 -0.000011 0.000010 -0.064830 -0.024837 -0.041871 0.000008 -0.000017 0.000027 -0.000020 -0.000003 0.000005 0.000038 0.000030 -0.000048 -0.274724 0.188247 0.226156 -51.546065 -8.002980 -5.398322 31.980141 -8.747679 2.511210 0.132982 1.147151 -2.375136 -0.000313 0.000087 -0.000005 0.283975 -0.062944 0.232175 -15.063718 13.222863 8.913211 47.255839 -12.044304 5.284736 -0.968595 0.482606 -0.392084 -40.323555 10.647503 3.919224 
